<svg xmlns="http://www.w3.org/2000/svg" viewBox="0 0 32 32">
  <circle cx="16" cy="16" r="16" fill="#1a0f0a"/>
  <path d="M8 12 Q8 10 10 10 L22 10 Q24 10 24 12 L24 22 Q24 26 20 26 L12 26 Q8 26 8 22 Z" fill="#C8956C"/>
  <path d="M8 12 Q8 10 10 10 L22 10 Q24 10 24 12 L24 22 Q24 26 20 26 L12 26 Q8 26 8 22 Z" fill="none" stroke="#D4A574" stroke-width="1"/>
  <ellipse cx="16" cy="12" rx="7" ry="2" fill="#D4A574"/>
  <path d="M24 14 Q28 14 28 18 Q28 22 24 22" fill="none" stroke="#C8956C" stroke-width="2" stroke-linecap="round"/>
  <path d="M12 8 Q12 6 14 6 L18 6 Q20 6 20 8" fill="none" stroke="#C8956C" stroke-width="1.5" stroke-linecap="round" opacity="0.6"/>
</svg>